<svg width="32" height="32" viewBox="0 0 32 32" fill="none" xmlns="http://www.w3.org/2000/svg">
<rect width="32" height="32" rx="8" fill="url(#paint0_linear_7_209)"/>
<g clip-path="url(#clip0_7_209)">
<g filter="url(#filter0_d_7_209)">
<path d="M19.6562 11.6207C19.8388 11.4363 20.087 11.3318 20.3466 11.3299C20.6061 11.3279 20.8558 11.4288 21.0411 11.6105C21.2265 11.7921 21.3324 12.0398 21.3357 12.2993C21.339 12.5588 21.2395 12.809 21.0589 12.9954L15.8322 19.5294C15.7424 19.626 15.634 19.7036 15.5136 19.7575C15.3932 19.8114 15.2631 19.8404 15.1312 19.8429C14.9993 19.8454 14.8682 19.8213 14.7458 19.772C14.6234 19.7227 14.5122 19.6492 14.4189 19.556L10.9535 16.092C10.7694 15.9078 10.666 15.6579 10.666 15.3975C10.6661 15.137 10.7696 14.8872 10.9539 14.703C11.1381 14.5189 11.3879 14.4155 11.6484 14.4155C11.9089 14.4156 12.1587 14.5191 12.3429 14.7034L15.0835 17.4447L19.6302 11.6514C19.6384 11.6408 19.6474 11.6308 19.6569 11.6214L19.6562 11.6207Z" fill="#B22066"/>
</g>
</g>
<defs>
<filter id="filter0_d_7_209" x="10.666" y="11.3298" width="10.6699" height="10.5132" filterUnits="userSpaceOnUse" color-interpolation-filters="sRGB">
<feFlood flood-opacity="0" result="BackgroundImageFix"/>
<feColorMatrix in="SourceAlpha" type="matrix" values="0 0 0 0 0 0 0 0 0 0 0 0 0 0 0 0 0 0 127 0" result="hardAlpha"/>
<feOffset dy="2"/>
<feColorMatrix type="matrix" values="0 0 0 0 0 0 0 0 0 0 0 0 0 0 0 0 0 0 0.1 0"/>
<feBlend mode="normal" in2="BackgroundImageFix" result="effect1_dropShadow_7_209"/>
<feBlend mode="normal" in="SourceGraphic" in2="effect1_dropShadow_7_209" result="shape"/>
</filter>
<linearGradient id="paint0_linear_7_209" x1="16" y1="0" x2="16" y2="32" gradientUnits="userSpaceOnUse">
<stop stop-color="white"/>
<stop offset="1" stop-color="#AEAEAE"/>
</linearGradient>
<clipPath id="clip0_7_209">
<rect width="10.6667" height="10.6667" fill="white" transform="translate(10.666 10.6667)"/>
</clipPath>
</defs>
</svg>
