<svg width="30" height="30" viewBox="0 0 30 30" fill="none" xmlns="http://www.w3.org/2000/svg">
<path d="M20.625 3.75C19.5209 3.74984 18.433 4.0161 17.4537 4.52619C16.4744 5.03628 15.6327 5.77512 15 6.68C14.3673 5.77512 13.5256 5.03628 12.5463 4.52619C11.567 4.0161 10.4791 3.74984 9.375 3.75C7.55164 3.75 5.80295 4.47433 4.51364 5.76364C3.22433 7.05295 2.5 8.80164 2.5 10.625C2.5 17.7738 10.625 23.6725 15 26.6875C19.375 23.6725 27.5 17.7738 27.5 10.625C27.5 9.72216 27.3222 8.82817 26.9767 7.99405C26.6312 7.15994 26.1248 6.40204 25.4864 5.76364C24.848 5.12524 24.0901 4.61883 23.2559 4.27333C22.4218 3.92783 21.5278 3.75 20.625 3.75Z" fill="#F8F8F8"/>
</svg>
