<svg width="75" height="75" viewBox="0 0 75 75" fill="none" xmlns="http://www.w3.org/2000/svg">
<circle cx="37.5" cy="37.5" r="29.125" stroke="white" stroke-width="2" stroke-linecap="round"/>
<path d="M26.4631 52.9289C27.627 52.6769 29.2583 52.4755 31.178 52.3369C33.1055 52.1978 35.2853 52.125 37.5 52.125C39.7147 52.125 41.8945 52.1978 43.822 52.3369C45.7417 52.4755 47.373 52.6769 48.5369 52.9289" stroke="white" stroke-width="2" stroke-linecap="round"/>
<mask id="path-3-outside-1_0_746" maskUnits="userSpaceOnUse" x="24" y="30.125" width="8" height="5" fill="black">
<rect fill="white" x="24" y="30.125" width="8" height="5"/>
<path d="M30.75 31.25C30.9916 31.25 31.1123 31.25 31.1872 31.3379C31.2621 31.4258 31.2447 31.5332 31.2101 31.7479C31.1061 32.3922 30.8021 32.9923 30.3347 33.4597C29.7487 34.0458 28.9538 34.375 28.125 34.375C27.2962 34.375 26.5013 34.0458 25.9153 33.4597C25.4479 32.9923 25.1439 32.3922 25.0399 31.7479C25.0053 31.5332 24.9879 31.4258 25.0628 31.3379C25.1377 31.25 25.2584 31.25 25.5 31.25L28.125 31.25H30.75Z"/>
</mask>
<path d="M30.75 31.25C30.9916 31.25 31.1123 31.25 31.1872 31.3379C31.2621 31.4258 31.2447 31.5332 31.2101 31.7479C31.1061 32.3922 30.8021 32.9923 30.3347 33.4597C29.7487 34.0458 28.9538 34.375 28.125 34.375C27.2962 34.375 26.5013 34.0458 25.9153 33.4597C25.4479 32.9923 25.1439 32.3922 25.0399 31.7479C25.0053 31.5332 24.9879 31.4258 25.0628 31.3379C25.1377 31.25 25.2584 31.25 25.5 31.25L28.125 31.25H30.75Z" fill="white"/>
<path d="M30.75 31.25C30.9916 31.25 31.1123 31.25 31.1872 31.3379C31.2621 31.4258 31.2447 31.5332 31.2101 31.7479C31.1061 32.3922 30.8021 32.9923 30.3347 33.4597C29.7487 34.0458 28.9538 34.375 28.125 34.375C27.2962 34.375 26.5013 34.0458 25.9153 33.4597C25.4479 32.9923 25.1439 32.3922 25.0399 31.7479C25.0053 31.5332 24.9879 31.4258 25.0628 31.3379C25.1377 31.25 25.2584 31.25 25.5 31.25L28.125 31.25H30.75Z" stroke="white" stroke-linecap="round" mask="url(#path-3-outside-1_0_746)"/>
<mask id="path-4-outside-2_0_746" maskUnits="userSpaceOnUse" x="42.75" y="30.125" width="8" height="5" fill="black">
<rect fill="white" x="42.75" y="30.125" width="8" height="5"/>
<path d="M49.5 31.25C49.7416 31.25 49.8623 31.25 49.9372 31.3379C50.0121 31.4258 49.9947 31.5332 49.9601 31.7479C49.8561 32.3922 49.5521 32.9923 49.0847 33.4597C48.4987 34.0458 47.7038 34.375 46.875 34.375C46.0462 34.375 45.2513 34.0458 44.6653 33.4597C44.1979 32.9923 43.8939 32.3922 43.7899 31.7479C43.7553 31.5332 43.7379 31.4258 43.8128 31.3379C43.8877 31.25 44.0084 31.25 44.25 31.25L46.875 31.25H49.5Z"/>
</mask>
<path d="M49.5 31.25C49.7416 31.25 49.8623 31.25 49.9372 31.3379C50.0121 31.4258 49.9947 31.5332 49.9601 31.7479C49.8561 32.3922 49.5521 32.9923 49.0847 33.4597C48.4987 34.0458 47.7038 34.375 46.875 34.375C46.0462 34.375 45.2513 34.0458 44.6653 33.4597C44.1979 32.9923 43.8939 32.3922 43.7899 31.7479C43.7553 31.5332 43.7379 31.4258 43.8128 31.3379C43.8877 31.25 44.0084 31.25 44.25 31.25L46.875 31.25H49.5Z" fill="white"/>
<path d="M49.5 31.25C49.7416 31.25 49.8623 31.25 49.9372 31.3379C50.0121 31.4258 49.9947 31.5332 49.9601 31.7479C49.8561 32.3922 49.5521 32.9923 49.0847 33.4597C48.4987 34.0458 47.7038 34.375 46.875 34.375C46.0462 34.375 45.2513 34.0458 44.6653 33.4597C44.1979 32.9923 43.8939 32.3922 43.7899 31.7479C43.7553 31.5332 43.7379 31.4258 43.8128 31.3379C43.8877 31.25 44.0084 31.25 44.25 31.25L46.875 31.25H49.5Z" stroke="white" stroke-linecap="round" mask="url(#path-4-outside-2_0_746)"/>
</svg>
