<svg width="166" height="27" viewBox="0 0 166 27" fill="none" xmlns="http://www.w3.org/2000/svg">
<g clip-path="url(#clip0_8_1591)">
<path d="M12.035 18.4324C12.45 18.6409 12.7618 19.005 12.7618 19.3684C12.7618 20.0716 12.0613 20.6957 11.4128 20.3579L1.13972 15.0239C0.568805 14.6862 0.0761719 14.4771 0.0761719 13.7488C0.0761719 12.9941 0.543161 12.8114 1.13972 12.448L11.4128 7.11393C12.1133 6.87976 12.7618 7.40091 12.7618 8.10345C12.7618 8.49262 12.4507 8.85742 12.035 9.06656L2.74854 13.7488L12.035 18.4324Z" fill="white"/>
<path d="M11.7881 20.5289C11.6478 20.5289 11.5094 20.4937 11.3778 20.426L1.10471 15.092C1.04668 15.0581 0.993366 15.0277 0.941403 14.9965C0.436622 14.7048 0 14.4524 0 13.7492C0 13.0338 0.400856 12.7975 0.908336 12.4977C0.971096 12.4612 1.03453 12.4233 1.09999 12.3833L11.3771 7.04661C11.5087 7.00194 11.6316 6.98096 11.7537 6.98096C12.3611 6.98096 12.8375 7.47368 12.8375 8.10312C12.8375 8.50042 12.5426 8.89636 12.0688 9.13324L2.91666 13.7478L12.0688 18.3624C12.5352 18.5965 12.8375 18.9918 12.8375 19.3668C12.8375 19.986 12.3469 20.5289 11.7881 20.5289ZM11.7537 7.13459C11.6484 7.13459 11.5418 7.15219 11.4365 7.18739L1.1749 12.516C1.11349 12.5546 1.04803 12.5925 0.985267 12.629C0.483861 12.9261 0.152515 13.1217 0.152515 13.7492C0.152515 14.3651 0.514903 14.5742 1.01698 14.8646C1.0703 14.895 1.12361 14.9255 1.17827 14.9586L11.4473 20.2899C11.5566 20.3468 11.6714 20.3759 11.7874 20.3759C12.2578 20.3759 12.685 19.896 12.685 19.3688C12.685 19.0541 12.4103 18.7055 12.0007 18.5004L2.57857 13.7492L12.0007 8.99788C12.4164 8.78942 12.685 8.43747 12.685 8.1038C12.6857 7.56032 12.276 7.13459 11.7537 7.13459Z" fill="white"/>
<path d="M23.4982 23.3763C23.3423 23.844 22.876 24.1052 22.409 24.0267C21.89 23.9232 21.5526 23.4277 21.6302 22.8815C21.6302 22.8301 21.6565 22.7523 21.6822 22.6737L28.3496 3.83718C28.5048 3.36882 28.9718 3.13464 29.4388 3.21247C29.9314 3.3167 30.2952 3.81146 30.2169 4.33058C30.2169 4.38337 30.1906 4.4612 30.1649 4.51332L23.4982 23.3763Z" fill="white"/>
<path d="M22.574 24.1172C22.5146 24.1172 22.4546 24.1118 22.3965 24.1023C21.8317 23.9893 21.4713 23.46 21.555 22.8712C21.5543 22.8197 21.5806 22.7406 21.6083 22.656L28.2778 3.81194C28.4175 3.39366 28.8028 3.12158 29.261 3.12158C29.3244 3.12158 29.3879 3.12767 29.4506 3.13715C29.9986 3.25356 30.3745 3.79366 30.2922 4.34256C30.2928 4.40077 30.2604 4.49146 30.2335 4.54696L23.5694 23.4005C23.4277 23.8282 23.0275 24.1172 22.574 24.1172ZM29.261 3.27387C28.8696 3.27387 28.5403 3.50398 28.4215 3.86067L21.7541 22.6986C21.7305 22.769 21.7068 22.8428 21.7068 22.8813C21.634 23.4005 21.9424 23.8553 22.4235 23.9521C22.4714 23.9602 22.5227 23.9642 22.574 23.9642C22.962 23.9642 23.3049 23.7186 23.4263 23.3524L30.0944 4.48808C30.1221 4.43055 30.1417 4.3649 30.1417 4.33173C30.2125 3.84984 29.89 3.38689 29.4236 3.2874C29.3717 3.2786 29.3163 3.27387 29.261 3.27387Z" fill="white"/>
<path d="M49.1259 13.749L39.8387 9.06677C39.4244 8.85763 39.1133 8.49283 39.1133 8.10366C39.1133 7.40112 39.8131 6.77573 40.4616 7.11414L50.7347 12.4482C51.3319 12.8116 51.7983 12.9944 51.7983 13.749C51.7983 14.4773 51.3056 14.6864 50.7347 15.0241L40.4616 20.3582C39.8131 20.6959 39.1133 20.0719 39.1133 19.3686C39.1133 19.0052 39.4244 18.6411 39.8387 18.4326L49.1259 13.749Z" fill="white"/>
<path d="M40.0872 20.5288C39.5284 20.5288 39.0371 19.986 39.0371 19.3687C39.0371 18.9931 39.3388 18.5978 39.8058 18.3643L48.9579 13.7498L39.8058 9.13452C39.332 8.89628 39.0371 8.50102 39.0371 8.10441C39.0371 7.48647 39.5284 6.94434 40.0872 6.94434C40.2282 6.94434 40.3659 6.97885 40.4975 7.04721L50.7706 12.3812C50.8407 12.4232 50.9042 12.4618 50.9663 12.4983C51.4744 12.7975 51.8753 13.0344 51.8753 13.7498C51.8753 14.453 51.4393 14.7054 50.9339 14.9971C50.8812 15.0283 50.8279 15.0587 50.7739 15.0905L40.4975 20.4266C40.3659 20.4936 40.2282 20.5288 40.0872 20.5288ZM40.0872 7.09662C39.6175 7.09662 39.1896 7.57649 39.1896 8.10373C39.1896 8.4374 39.4575 8.78935 39.8739 8.99781L49.296 13.7491L39.8739 18.5004C39.465 18.7068 39.1896 19.0553 39.1896 19.3687C39.1896 19.896 39.6175 20.3758 40.0872 20.3758C40.2032 20.3758 40.318 20.3467 40.4273 20.2899L50.7004 14.9565C50.751 14.9254 50.805 14.8949 50.8576 14.8645C51.3597 14.5734 51.7228 14.365 51.7228 13.7491C51.7228 13.121 51.3914 12.9261 50.8893 12.6289C50.8266 12.5924 50.7625 12.5545 50.6957 12.5139L40.4273 7.18325C40.318 7.12505 40.2032 7.09662 40.0872 7.09662Z" fill="white"/>
<path d="M62.25 0H66.5128C68.9693 0 70.6214 0.106276 71.4691 0.318829C72.7022 0.627997 73.704 1.25116 74.4747 2.18833C75.2454 3.12549 75.6307 4.30904 75.6307 5.73896C75.6307 7.1592 75.2526 8.33549 74.4964 9.26782C73.7402 10.2002 72.6973 10.8257 71.3679 11.1445C70.395 11.3764 68.5791 11.4923 65.9203 11.4923H64.3886V21.492H62.25L62.25 0ZM64.3886 2.088V9.39212L68.0299 9.4356C69.4845 9.4356 70.5514 9.30275 71.2306 9.03706C71.9097 8.77137 72.4444 8.3366 72.8345 7.73276C73.2247 7.12891 73.4198 6.46467 73.4197 5.74003C73.4197 5.00576 73.2247 4.33912 72.8345 3.7401C72.4444 3.14109 71.9314 2.71598 71.2957 2.46478C70.6599 2.21358 69.6195 2.08797 68.1745 2.08798L64.3886 2.088ZM87.046 4.8987C89.4832 4.8987 91.5062 5.78273 93.1149 7.55078C94.5985 9.16425 95.3402 11.0821 95.3402 13.3042C95.3595 18.7919 95.3595 21.5793 95.3402 21.6662H93.1872V18.0577C92.0601 20.1639 90.013 21.3426 87.046 21.5938C84.6184 21.5938 82.6363 20.7654 81.0998 19.1084C79.5633 17.4515 78.7951 15.5168 78.7951 13.3043C78.7951 11.1015 79.5224 9.18852 80.977 7.56538C82.5858 5.78767 84.6088 4.8987 87.046 4.8987ZM87.046 6.89914C85.3602 6.89914 83.9104 7.52714 82.6966 8.78313C81.4828 10.0391 80.8759 11.556 80.8759 13.3337C80.8759 14.4834 81.1865 15.5896 81.8079 16.6524C82.4292 17.7152 83.4817 18.6137 84.9652 19.348C88.6836 20.1788 91.3279 18.4833 92.8982 14.2612C92.9849 12.9086 92.8404 11.6139 92.4647 10.3773C92.1949 9.8169 91.8241 9.28551 91.352 8.78312C90.1671 7.52712 88.7318 6.89914 87.046 6.89914ZM97.5944 5.30532H99.7475L105.195 17.5513L110.484 5.30532H112.666L103.201 27H101.048L104.097 20.0002L97.5944 5.30532ZM115.296 0.115753H117.477V8.40526L126.899 0.115753H130.136L122.203 7.44882L130.93 21.6077H128.113L120.107 9.10096L117.477 11.4197V21.6077H115.296V0.115753ZM146.609 15.9275L148.314 16.8405C147.764 17.9516 147.119 18.8453 146.377 19.5216C145.635 20.1979 144.802 20.7124 143.877 21.065C142.953 21.4176 141.907 21.5939 140.742 21.5939C138.16 21.5939 136.142 20.7461 134.687 19.0506C133.233 17.355 132.505 15.4396 132.505 13.3043C132.505 11.2851 133.122 9.48805 134.355 7.91322C135.916 5.90363 138.011 4.89884 140.641 4.89884C143.328 4.89884 145.481 5.92779 147.1 7.98569C148.246 9.43491 148.824 11.2416 148.834 13.4058H134.601C134.639 15.2608 135.227 16.7801 136.364 17.9636C137.5 19.1471 138.902 19.7389 140.568 19.7389C141.378 19.7389 142.163 19.5964 142.924 19.3114C143.685 19.0264 144.333 18.652 144.867 18.1882C145.402 17.7245 145.982 16.9709 146.609 15.9275ZM146.609 11.6523C146.339 10.5605 145.944 9.68857 145.424 9.03641C144.903 8.38426 144.215 7.85769 143.357 7.45669C142.5 7.05569 141.599 6.85522 140.655 6.85527C139.104 6.85527 137.77 7.35767 136.652 8.36246C135.843 9.09673 135.232 10.1933 134.817 11.6522L146.609 11.6523ZM150.929 5.30532H153.082L158.529 17.5513L163.818 5.30532H166L156.535 27H154.382L157.431 20.0002L150.929 5.30532Z" fill="white"/>
</g>
<defs>
<clipPath id="clip0_8_1591">
<rect width="166" height="27" fill="white"/>
</clipPath>
</defs>
</svg>
